<svg width="130" height="50" viewBox="0 0 130 50" fill="none" xmlns="http://www.w3.org/2000/svg">
<path d="M13.6332 25.3726C15.4458 25.3726 16.9936 24.685 18.2767 23.3098C19.5599 21.9346 20.2015 20.2494 20.2015 18.254C20.2015 16.2587 19.5599 14.5734 18.2767 13.1982C16.9936 11.823 15.4458 11.1355 13.6332 11.1355C11.7489 11.1355 10.2953 11.7916 9.27235 13.1038V6.12012H5.7998V24.9951H9.27235V23.4042C10.2953 24.7164 11.7489 25.3726 13.6332 25.3726ZM12.9872 22.056C11.9104 22.056 11.0221 21.7055 10.3222 21.0043C9.6223 20.2854 9.27235 19.3686 9.27235 18.254C9.27235 17.1395 9.6223 16.2272 10.3222 15.5171C11.0221 14.8071 11.9104 14.4521 12.9872 14.4521C14.0639 14.4521 14.9567 14.8071 15.6656 15.5171C16.3745 16.2272 16.7289 17.1395 16.7289 18.254C16.7289 19.3686 16.3745 20.2808 15.6656 20.9908C14.9567 21.7009 14.0639 22.056 12.9872 22.056ZM26.1237 24.9951V18.5506C26.1237 17.2563 26.5409 16.3306 27.3753 15.7733C28.2098 15.216 29.1565 15.0003 30.2153 15.1262V11.2433C29.3001 11.2433 28.4701 11.459 27.7253 11.8905C26.9806 12.3219 26.4466 12.969 26.1237 13.8319V11.513H22.6511V24.9951H26.1237ZM38.9102 25.3726C41.4944 25.3726 43.4505 24.4108 44.7785 22.4874L41.9789 20.8696C41.2969 21.7683 40.292 22.2177 38.964 22.2177C36.9002 22.2177 35.635 21.3729 35.1685 19.6831H45.3169C45.4067 19.1798 45.4514 18.7034 45.4514 18.254C45.4514 16.2407 44.81 14.5509 43.5268 13.1847C42.2437 11.8186 40.615 11.1355 38.6409 11.1355C36.5592 11.1355 34.8544 11.8141 33.5264 13.1713C32.1983 14.5285 31.5343 16.2227 31.5343 18.254C31.5343 20.3033 32.2073 22.002 33.5533 23.3503C34.8992 24.6985 36.6848 25.3726 38.9102 25.3726ZM41.9789 16.9867H35.1145C35.312 16.1238 35.7158 15.4542 36.326 14.9779C36.9361 14.5015 37.7078 14.2633 38.6409 14.2633C39.4306 14.2633 40.135 14.488 40.7541 14.9374C41.3733 15.3868 41.7815 16.0699 41.9789 16.9867ZM53.7156 25.3726C55.5999 25.3726 57.0625 24.7164 58.1034 23.4042V24.9951H61.5759V11.513H58.1034V13.1038C57.0625 11.7916 55.5999 11.1355 53.7156 11.1355C51.9211 11.1355 50.3822 11.823 49.099 13.1982C47.8159 14.5734 47.1743 16.2587 47.1743 18.254C47.1743 20.2494 47.8159 21.9346 49.099 23.3098C50.3822 24.685 51.9211 25.3726 53.7156 25.3726ZM54.3616 22.056C53.2849 22.056 52.3966 21.7055 51.6967 21.0043C50.9968 20.2854 50.6469 19.3686 50.6469 18.254C50.6469 17.1395 50.9968 16.2272 51.6967 15.5171C52.3966 14.8071 53.2849 14.4521 54.3616 14.4521C55.4384 14.4521 56.3312 14.8071 57.0401 15.5171C57.7489 16.2272 58.1034 17.1395 58.1034 18.254C58.1034 19.3686 57.7489 20.2808 57.0401 20.9908C56.3312 21.7009 55.4384 22.056 54.3616 22.056ZM68.1981 24.9951V18.8742L73.0973 24.9951H77.1351L71.5629 18.1731L76.9736 11.513H72.8281L68.1981 17.4451V6.12012H64.7255V24.9951H68.1981ZM85.3724 25.3456C87.3464 25.3456 89.0244 24.6625 90.4062 23.2963C91.788 21.9302 92.479 20.2494 92.479 18.254C92.479 16.2587 91.788 14.5779 90.4062 13.2117C89.0244 11.8455 87.3464 11.1624 85.3724 11.1624C83.3983 11.1624 81.7248 11.8455 80.3519 13.2117C78.9791 14.5779 78.2926 16.2587 78.2926 18.254C78.2926 20.2494 78.9791 21.9302 80.3519 23.2963C81.7248 24.6625 83.3983 25.3456 85.3724 25.3456ZM85.3724 23.0537C84.0444 23.0537 82.9226 22.5953 82.0074 21.6785C81.0922 20.7617 80.6346 19.6202 80.6346 18.254C80.6346 16.8878 81.0922 15.7463 82.0074 14.8296C82.9226 13.9128 84.0444 13.4544 85.3724 13.4544C86.7183 13.4544 87.8489 13.9128 88.7641 14.8296C89.6793 15.7463 90.1371 16.8878 90.1371 18.254C90.1371 19.6202 89.6793 20.7617 88.7641 21.6785C87.8489 22.5953 86.7183 23.0537 85.3724 23.0537ZM100.178 25.3456C102.134 25.3456 103.588 24.5816 104.539 23.0537V24.9951H106.881V11.513H104.539V18.6585C104.539 20.1684 104.18 21.2875 103.462 22.0155C102.744 22.7435 101.802 23.1075 100.635 23.1075C99.5945 23.1075 98.778 22.8065 98.1857 22.2043C97.5935 21.602 97.2974 20.7527 97.2974 19.6561V11.513H94.9555V19.791C94.9555 21.4987 95.4311 22.8514 96.3822 23.8491C97.3334 24.8467 98.5985 25.3456 100.178 25.3456ZM113.26 24.4962C114.212 25.0984 115.71 25.2647 117.756 24.9951V22.8919C116.966 22.9278 116.302 22.9412 115.764 22.9323C115.226 22.9233 114.826 22.7795 114.566 22.5009C114.306 22.2223 114.176 21.7504 114.176 21.0852V13.778H117.756V11.513H114.176V7.73797L111.834 8.43904V11.513H109.169V13.778H111.834V21.0852C111.834 22.757 112.309 23.894 113.26 24.4962Z" fill="#484848"/>
<path d="M122.234 25.3727C122.786 25.3727 123.243 25.1852 123.608 24.81C123.971 24.4348 124.154 23.9806 124.154 23.4475C124.154 22.9143 123.971 22.4602 123.608 22.085C123.243 21.7099 122.786 21.5222 122.234 21.5222C121.702 21.5222 121.25 21.7099 120.876 22.085C120.502 22.4602 120.315 22.9143 120.315 23.4475C120.315 23.9806 120.502 24.4348 120.876 24.81C121.25 25.1852 121.702 25.3727 122.234 25.3727Z" fill="#14CC60"/>
<path d="M57.1266 31.6311H58.2737V40.3217H57.1266V38.966C56.4777 40.0089 55.5043 40.5303 54.2065 40.5303C53.1521 40.5303 52.3178 40.2116 51.7036 39.5743C51.1011 38.9254 50.7998 38.0564 50.7998 36.9671V31.6311H51.947V36.9671C51.947 37.7435 52.1497 38.3461 52.5553 38.7748C52.9725 39.2035 53.5576 39.4179 54.3108 39.4179C55.1451 39.4179 55.823 39.1572 56.3444 38.6357C56.8658 38.1027 57.1266 37.2858 57.1266 36.185V31.6311Z" fill="#484848"/>
<path d="M64.1883 31.4225C65.2427 31.4225 66.0712 31.747 66.6738 32.3959C67.2879 33.0332 67.595 33.8965 67.595 34.9857V40.3217H66.4478V34.9857C66.4478 34.2093 66.2392 33.6068 65.8221 33.178C65.4165 32.7493 64.8372 32.5349 64.084 32.5349C63.2497 32.5349 62.5718 32.8015 62.0504 33.3345C61.5289 33.8559 61.2682 34.667 61.2682 35.7678V40.3217H60.1211V31.6311H61.2682V32.9869C61.9171 31.944 62.8905 31.4225 64.1883 31.4225Z" fill="#484848"/>
<path d="M70.3983 29.5454C70.2361 29.7076 70.0391 29.7887 69.8073 29.7887C69.5756 29.7887 69.3786 29.7076 69.2164 29.5454C69.0541 29.3832 68.973 29.1862 68.973 28.9544C68.973 28.7227 69.0541 28.5257 69.2164 28.3635C69.3786 28.2012 69.5756 28.1201 69.8073 28.1201C70.0391 28.1201 70.2361 28.2012 70.3983 28.3635C70.5605 28.5257 70.6416 28.7227 70.6416 28.9544C70.6416 29.1862 70.5605 29.3832 70.3983 29.5454ZM69.2337 40.3217V31.6311H70.3809V40.3217H69.2337Z" fill="#484848"/>
<path d="M78.4931 31.6311H79.7098L76.1466 40.3217H74.7561L71.193 31.6311H72.4097L75.4514 39.1224L78.4931 31.6311Z" fill="#484848"/>
<path d="M84.1924 31.4225C85.4786 31.4225 86.5157 31.8803 87.3036 32.7957C88.1032 33.6995 88.5029 34.7713 88.5029 36.0112C88.5029 36.1386 88.4913 36.3182 88.4682 36.55H80.8378C80.9537 37.4306 81.3245 38.1317 81.9502 38.6531C82.5875 39.163 83.3697 39.4179 84.2967 39.4179C84.9572 39.4179 85.525 39.2846 86 39.0181C86.4867 38.74 86.8517 38.3808 87.0951 37.9405L88.1032 38.5315C87.7208 39.1456 87.1993 39.6323 86.5389 39.9915C85.8784 40.3507 85.1252 40.5303 84.2793 40.5303C82.912 40.5303 81.7996 40.1016 80.9421 39.2441C80.0846 38.3866 79.6559 37.2974 79.6559 35.9764C79.6559 34.6786 80.0788 33.5952 80.9247 32.7261C81.7706 31.8571 82.8598 31.4225 84.1924 31.4225ZM84.1924 32.5349C83.2886 32.5349 82.5296 32.8072 81.9155 33.3519C81.3129 33.8849 80.9537 34.5801 80.8378 35.4376H87.321C87.2051 34.5222 86.8517 33.8096 86.2608 33.2997C85.6698 32.7899 84.9803 32.5349 84.1924 32.5349Z" fill="#484848"/>
<path d="M90.8955 33.0738C91.4285 32.0193 92.3439 31.4921 93.6417 31.4921V32.6045C92.8538 32.6045 92.1991 32.8362 91.6776 33.2997C91.1562 33.7632 90.8955 34.4932 90.8955 35.4897V40.3217H89.7483V31.6311H90.8955V33.0738Z" fill="#484848"/>
<path d="M95.1989 33.9081C95.1989 34.302 95.3727 34.6149 95.7203 34.8466C96.0679 35.0784 96.4909 35.258 96.9891 35.3855C97.4874 35.5129 97.9856 35.6578 98.4839 35.82C98.9822 35.9706 99.4051 36.2313 99.7527 36.6021C100.1 36.9614 100.274 37.4364 100.274 38.0274C100.274 38.769 99.9787 39.3715 99.3877 39.835C98.8084 40.2985 98.0552 40.5303 97.1282 40.5303C96.2939 40.5303 95.5812 40.3449 94.9903 39.9741C94.4109 39.6033 94.0054 39.1224 93.7736 38.5315L94.7469 37.9579C94.9092 38.4098 95.1989 38.769 95.616 39.0355C96.0447 39.2904 96.5488 39.4179 97.1282 39.4179C97.696 39.4179 98.171 39.3078 98.5534 39.0877C98.9358 38.8559 99.127 38.5025 99.127 38.0274C99.127 37.6334 98.9532 37.3206 98.6056 37.0888C98.2579 36.8571 97.835 36.6775 97.3368 36.55C96.8385 36.4225 96.3402 36.2835 95.842 36.1329C95.3437 35.9706 94.9208 35.7099 94.5731 35.3507C94.2255 34.9799 94.0517 34.499 94.0517 33.9081C94.0517 33.2012 94.3298 32.6103 94.886 32.1352C95.4538 31.6601 96.1664 31.4225 97.0239 31.4225C97.7307 31.4225 98.3507 31.5848 98.8837 31.9092C99.4167 32.2221 99.8107 32.6508 100.066 33.1954L99.1096 33.7516C98.7736 32.9405 98.0783 32.5349 97.0239 32.5349C96.5256 32.5349 96.0969 32.6566 95.7377 32.8999C95.3785 33.1317 95.1989 33.4677 95.1989 33.9081Z" fill="#484848"/>
<path d="M102.688 29.5454C102.526 29.7076 102.329 29.7887 102.097 29.7887C101.865 29.7887 101.668 29.7076 101.506 29.5454C101.344 29.3832 101.263 29.1862 101.263 28.9544C101.263 28.7227 101.344 28.5257 101.506 28.3635C101.668 28.2012 101.865 28.1201 102.097 28.1201C102.329 28.1201 102.526 28.2012 102.688 28.3635C102.85 28.5257 102.932 28.7227 102.932 28.9544C102.932 29.1862 102.85 29.3832 102.688 29.5454ZM101.524 40.3217V31.6311H102.671V40.3217H101.524Z" fill="#484848"/>
<path d="M109.132 32.7435H106.629V38.01C106.629 38.4851 106.722 38.8269 106.907 39.0355C107.092 39.2325 107.37 39.3368 107.741 39.3484C108.112 39.3484 108.576 39.3368 109.132 39.3136V40.3217C107.915 40.5071 107 40.4202 106.386 40.061C105.783 39.7018 105.482 39.0181 105.482 38.01V32.7435H103.657V31.6311H105.482V29.5454L106.629 29.1978V31.6311H109.132V32.7435Z" fill="#484848"/>
<path d="M116.891 31.6311H118.108L114.388 41.1213C114.052 41.9787 113.571 42.6508 112.946 43.1375C112.332 43.6357 111.642 43.8559 110.877 43.798V42.7203C111.92 42.8362 112.714 42.2337 113.259 40.9127L113.485 40.3739L109.591 31.6311H110.808L114.076 38.9138L116.891 31.6311Z" fill="#484848"/>
</svg>
