<svg width="60" height="60" viewBox="0 0 60 60" fill="none" xmlns="http://www.w3.org/2000/svg">
<g clip-path="url(#clip0_1_597)">
<path d="M60 30C60 46.5686 46.5686 60 30 60C13.4314 60 0 46.5686 0 30C0 13.4314 13.4314 0 30 0C46.5686 0 60 13.4314 60 30Z" fill="#2B3894"/>
<path d="M39.1703 49.2574H4.5293C3.88207 49.2574 3.35742 48.7328 3.35742 48.0855V29.8032C3.35742 29.156 3.88207 28.6313 4.5293 28.6313H39.1703C39.5871 28.6313 39.9725 28.8527 40.1825 29.2127L45.5149 38.3538C45.7277 38.7187 45.7277 39.1699 45.5149 39.5347L40.1825 48.6758C39.9725 49.036 39.5871 49.2574 39.1703 49.2574Z" fill="#F76C57"/>
<path d="M7.56094 49.2574H4.5293C3.88207 49.2574 3.35742 48.7328 3.35742 48.0855V29.8032C3.35742 29.156 3.88207 28.6313 4.5293 28.6313H7.56105C6.91383 28.6313 6.38918 29.156 6.38918 29.8032V48.0854C6.38906 48.7326 6.91371 49.2574 7.56094 49.2574Z" fill="#E5554E"/>
<path d="M18.75 38.6523C18.75 38.167 19.1435 37.7734 19.6289 37.7734H36.6211C37.1065 37.7734 37.5 38.167 37.5 38.6523C37.5 39.1377 37.1065 39.5312 36.6211 39.5312H19.6289C19.1435 39.5312 18.75 39.1377 18.75 38.6523ZM36.6211 41.875H19.6289C19.1435 41.875 18.75 42.2685 18.75 42.7539C18.75 43.2393 19.1435 43.6328 19.6289 43.6328H36.6211C37.1065 43.6328 37.5 43.2393 37.5 42.7539C37.5 42.2685 37.1065 41.875 36.6211 41.875Z" fill="#FAA598"/>
<path d="M59.841 25.2365L54.5087 34.3776C54.2987 34.7376 53.9133 34.9589 53.4964 34.9589H18.8555C18.2082 34.9589 17.6836 34.4343 17.6836 33.7871V15.5049C17.6836 14.8577 18.2082 14.333 18.8555 14.333H53.4964C53.9133 14.333 54.2987 14.5544 54.5087 14.9144L59.841 24.0555C60.0538 24.4204 60.0538 24.8716 59.841 25.2365Z" fill="#EAC23F"/>
<path d="M21.8843 34.9589H18.8525C18.2053 34.9589 17.6807 34.4343 17.6807 33.7871V15.5049C17.6807 14.8577 18.2053 14.333 18.8525 14.333H21.8843C21.2371 14.333 20.7124 14.8577 20.7124 15.5049V33.7871C20.7124 34.4343 21.2371 34.9589 21.8843 34.9589Z" fill="#E1B91E"/>
<path d="M52.7344 24.647C52.7344 25.1324 52.3409 25.5259 51.8555 25.5259H34.8633C34.3779 25.5259 33.9844 25.1324 33.9844 24.647C33.9844 24.1616 34.3779 23.7681 34.8633 23.7681H51.8555C52.3409 23.7681 52.7344 24.1616 52.7344 24.647ZM51.8555 27.8696H34.8633C34.3779 27.8696 33.9844 28.2631 33.9844 28.7485C33.9844 29.2339 34.3779 29.6274 34.8633 29.6274H51.8555C52.3409 29.6274 52.7344 29.2339 52.7344 28.7485C52.7344 28.2631 52.3409 27.8696 51.8555 27.8696Z" fill="#EDD578"/>
<path d="M44.2969 20.5454C44.2969 21.0308 43.9034 21.4243 43.418 21.4243H34.8633C34.3779 21.4243 33.9844 21.0308 33.9844 20.5454C33.9844 20.06 34.3779 19.6665 34.8633 19.6665H43.418C43.9034 19.6665 44.2969 20.06 44.2969 20.5454Z" fill="#FFF79F"/>
<path d="M14.1416 24.647C14.1416 20.0501 17.9228 16.3364 22.5445 16.4462C26.8813 16.5493 30.4232 20.0752 30.5446 24.4115C30.6129 26.8512 29.6156 29.0591 27.9842 30.6041C27.7381 30.8371 27.3622 30.8654 27.0859 30.6694C25.7472 29.7196 24.1112 29.1613 22.3447 29.1613C20.588 29.1613 18.9602 29.7135 17.6256 30.6539C17.3361 30.8578 16.9431 30.8306 16.6868 30.5864C15.1187 29.0924 14.1416 26.9838 14.1416 24.647Z" fill="#B4E7FD"/>
<path d="M26.9179 22.2639V27.3464H17.7158V22.2639C17.7158 19.8514 19.6716 17.8955 22.0842 17.8955H22.5496C24.9621 17.8955 26.9179 19.8513 26.9179 22.2639Z" fill="#915041"/>
<path d="M22.1662 28.4482C20.7795 28.4482 19.6552 29.5725 19.6552 30.9595V31.3641C19.6552 31.8779 19.1129 32.2062 18.6543 31.9747C17.9111 31.5995 17.2328 31.1146 16.6406 30.5413C16.8397 29.3535 17.8726 28.4482 19.117 28.4482H22.1662Z" fill="#3342AE"/>
<path d="M28.0511 30.5413C26.5747 31.9705 24.5631 32.8502 22.3459 32.8502C20.9848 32.8502 19.7012 32.5186 18.5713 31.932V30.9595C18.5713 29.5725 19.6956 28.4482 21.0825 28.4482H25.5746C26.8189 28.4482 27.852 29.3535 28.0511 30.5413Z" fill="#3D4EC6"/>
<path d="M27.1877 23.9644V24.2888C27.1877 24.7668 26.8284 25.1866 26.3515 25.218C26.2413 25.2253 26.1352 25.2125 26.0361 25.1832C25.5966 26.343 24.626 27.2418 23.4211 27.5826V28.7704C23.4211 29.3436 22.9886 29.8441 22.4166 29.8812C21.7897 29.9219 21.2686 29.4255 21.2686 28.8075V27.5826C20.0638 27.2418 19.0931 26.3431 18.6536 25.1832C18.5544 25.2125 18.4481 25.2253 18.338 25.218C17.8611 25.1865 17.502 24.7667 17.502 24.2888V23.9644C17.502 23.4691 17.9034 23.0676 18.3988 23.0676V22.3501C18.3988 21.6187 18.5978 20.9338 18.9445 20.3466C19.0665 20.14 19.3066 20.035 19.5409 20.0871C20.4049 20.279 21.3518 20.3849 22.3448 20.3849C23.338 20.3849 24.2849 20.279 25.1489 20.0869C25.3832 20.0349 25.6233 20.1398 25.7453 20.3465C26.092 20.9337 26.291 21.6186 26.291 22.3499V23.0675C26.7863 23.0676 27.1877 23.4692 27.1877 23.9644Z" fill="#E09380"/>
<path d="M26.2877 22.3495V23.7845C26.2877 25.5607 25.1142 27.0627 23.5003 27.5577C21.8864 27.0627 20.7129 25.5607 20.7129 23.7845V22.3495C20.7129 21.572 20.9378 20.8471 21.326 20.2361C22.3318 18.6533 25.7338 20.3313 25.7619 20.3801C26.0964 20.9597 26.2877 21.6322 26.2877 22.3495Z" fill="#FAA68E"/>
<path d="M21.4836 23.5811C21.4836 23.8524 21.2637 24.0725 20.9923 24.0725H20.501C20.2297 24.0725 20.0098 23.8525 20.0098 23.5811C20.0098 23.3097 20.2297 23.0898 20.501 23.0898H20.9923C21.2637 23.0898 21.4836 23.3098 21.4836 23.5811ZM24.1856 23.0898H23.6944C23.4231 23.0898 23.203 23.3098 23.203 23.5811C23.203 23.8524 23.423 24.0725 23.6944 24.0725H24.1856C24.4569 24.0725 24.6769 23.8525 24.6769 23.5811C24.6769 23.3097 24.457 23.0898 24.1856 23.0898Z" fill="#915041"/>
<path d="M23.0804 25.3503V25.3994C23.0804 25.8064 22.7505 26.1364 22.3434 26.1364C21.9364 26.1364 21.6064 25.8065 21.6064 25.3994V25.3503C21.6064 25.2418 21.6945 25.1538 21.803 25.1538H22.8838C22.9924 25.1539 23.0804 25.2419 23.0804 25.3503Z" fill="#FFF5F5"/>
<path d="M22.3459 18.4038C23.8405 18.4038 25.1452 19.1989 25.8421 20.3804C24.7979 20.6699 23.6082 20.8337 22.3458 20.8337C21.0834 20.8337 19.8938 20.6699 18.8496 20.3804C19.5466 19.1989 20.8513 18.4038 22.3459 18.4038Z" fill="#915041"/>
<path d="M0 38.9439C0 34.347 3.78117 30.6333 8.40293 30.7431C12.7397 30.8462 16.2816 34.372 16.403 38.7083C16.4713 41.1481 15.474 43.356 13.8425 44.901C13.5964 45.134 13.2206 45.1623 12.9443 44.9663C11.6055 44.0166 9.96949 43.4583 8.20312 43.4583C6.44637 43.4583 4.81863 44.0105 3.48398 44.9509C3.19453 45.1548 2.80148 45.1276 2.5452 44.8834C0.977109 43.3893 0 41.2806 0 38.9439H0Z" fill="#B4E7FD"/>
<path d="M12.7792 33.6763V38.6519H3.57715V36.5607C3.57715 34.1481 5.53289 32.1924 7.94555 32.1924H11.2952C12.1147 32.1923 12.7792 32.8567 12.7792 33.6763Z" fill="#4C2C21"/>
<path d="M8.02465 42.7466C6.63785 42.7466 5.51355 43.8709 5.51355 45.2578V45.6625C5.51355 46.1762 4.97133 46.5046 4.51266 46.273C3.76945 45.8979 3.09117 45.413 2.49902 44.8397C2.69812 43.6519 3.73102 42.7466 4.97543 42.7466H8.02465Z" fill="#EAC23F"/>
<path d="M13.9095 44.8396C12.433 46.2689 10.4214 47.1485 8.2043 47.1485C6.84316 47.1485 5.55961 46.817 4.42969 46.2303V45.2578C4.42969 43.8709 5.55398 42.7466 6.9409 42.7466H11.433C12.6773 42.7466 13.7104 43.6517 13.9095 44.8396Z" fill="#E9CC5A"/>
<path d="M13.0461 38.2627V38.587C13.0461 39.065 12.6868 39.4848 12.2099 39.5162C12.0997 39.5235 11.9936 39.5107 11.8945 39.4814C11.455 40.6412 10.4844 41.54 9.27949 41.8808V43.0686C9.27949 43.6418 8.84695 44.1423 8.27496 44.1794C7.64812 44.2201 7.12699 43.7237 7.12699 43.1057V41.8808C5.92219 41.54 4.95152 40.6413 4.51195 39.4814C4.41281 39.5107 4.30652 39.5235 4.19637 39.5162C3.71953 39.4847 3.36035 39.0649 3.36035 38.587V38.2627C3.36035 37.7673 3.76184 37.3658 4.25719 37.3658V36.6483C4.25719 35.9169 4.45617 35.2321 4.80293 34.6448C4.92492 34.4382 5.16504 34.3332 5.3993 34.3853C6.26332 34.5772 7.2102 34.6833 8.20324 34.6833C9.19629 34.6833 10.1433 34.5773 11.0073 34.3853C11.2416 34.3332 11.4817 34.4381 11.6037 34.6448C11.9504 35.2321 12.1494 35.9169 12.1494 36.6483V37.3658C12.6446 37.3659 13.0461 37.7674 13.0461 38.2627Z" fill="#A65D4E"/>
<path d="M12.1491 36.6479V38.0828C12.1491 39.8591 10.9756 41.361 9.36164 41.856C7.74774 41.361 6.57422 39.8591 6.57422 38.0828V36.6479C6.57422 35.8703 6.7991 35.1454 7.18734 34.5344C8.19317 32.9517 11.5951 34.6297 11.6232 34.6784C11.9577 35.258 12.1491 35.9306 12.1491 36.6479Z" fill="#B46E5A"/>
<path d="M8.93871 39.9414C8.93871 40.2127 8.71875 40.4328 8.44734 40.4328H7.95609C7.6848 40.4328 7.46484 40.2128 7.46484 39.9414C7.46484 39.67 7.6848 39.4502 7.95609 39.4502H8.44734C8.71875 39.4502 8.93871 39.6701 8.93871 39.9414ZM7.34203 37.878C7.34203 38.1493 7.12207 38.3693 6.85066 38.3693H6.35941C6.08812 38.3693 5.86816 38.1494 5.86816 37.878C5.86816 37.6066 6.08812 37.3867 6.35941 37.3867H6.85066C7.12207 37.3867 7.34203 37.6067 7.34203 37.878ZM10.044 37.3867H9.55277C9.28148 37.3867 9.0614 37.6067 9.0614 37.878C9.0614 38.1493 9.28136 38.3693 9.55277 38.3693H10.044C10.3153 38.3693 10.5353 38.1494 10.5353 37.878C10.5353 37.6066 10.3154 37.3867 10.044 37.3867Z" fill="#915041"/>
<path d="M8.20219 32.7007C9.73594 32.7007 11.0749 33.4958 11.7901 34.6773C10.7186 34.9667 9.4977 35.1306 8.20219 35.1306C6.90668 35.1306 5.68582 34.9667 4.61426 34.6773C5.32945 33.4958 6.66844 32.7007 8.20219 32.7007Z" fill="#4C2C21"/>
</g>
<defs>
<clipPath id="clip0_1_597">
<rect width="60" height="60" fill="white"/>
</clipPath>
</defs>
</svg>
