<svg width="60" height="60" viewBox="0 0 60 60" fill="none" xmlns="http://www.w3.org/2000/svg">
<g clip-path="url(#clip0_1_571)">
<path d="M0 29.9998C0 13.4439 13.4109 0.0202868 29.962 -0.000221027C46.3902 -0.0204945 59.8522 13.2986 59.9988 29.7259C60.0845 39.3309 55.656 47.905 48.7063 53.4549C48.255 53.8152 47.6207 53.8471 47.1471 53.5166C42.287 50.1253 36.3758 48.1364 30 48.1364C23.6276 48.1364 17.7192 50.1233 12.8606 53.5113C12.3824 53.8449 11.742 53.813 11.2864 53.449C4.40707 47.9517 0 39.4904 0 29.9998Z" fill="#2B3894"/>
<path d="M57.6551 28.3571C57.6551 42.2086 46.4262 53.4376 32.5746 53.4376C18.723 53.4376 7.49414 42.2086 7.49414 28.3571C7.49414 14.5055 18.723 3.27661 32.5746 3.27661C46.4262 3.27661 57.6551 14.5055 57.6551 28.3571Z" fill="#3342AE"/>
<path d="M24.5196 41.4316C19.9891 41.4316 16.3165 45.1043 16.3165 49.6348V55.0238C16.3165 55.7924 15.4808 56.2691 14.8181 55.8795C13.568 55.1445 12.3757 54.3216 11.25 53.4191V49.6348C11.25 45.1043 14.9227 41.4316 19.4531 41.4316H24.5196Z" fill="#EDD578"/>
<path d="M48.75 49.6346V53.419C43.614 57.5362 37.0946 59.9989 30 59.9989C24.4386 59.9989 19.2308 58.4857 14.7656 55.8485V49.6347C14.7656 45.1043 18.4383 41.4316 22.9688 41.4316H40.5469C45.0773 41.4315 48.75 45.1042 48.75 49.6346Z" fill="#F5E8B4"/>
<path d="M39.3897 39.4458L30.8795 49.3661V59.9873C30.5876 59.9958 30.2947 60 30.0006 60C29.7066 60 29.4136 59.9958 29.1217 59.9873V49.3661L20.6116 39.4458C20.3507 39.1418 20.5668 38.6719 20.9674 38.6719H39.0339C39.4345 38.6719 39.6506 39.1418 39.3897 39.4458Z" fill="#FFF5F5"/>
<path d="M42.8906 21.5098V26.1973C42.8906 32.0978 38.9262 37.0724 33.5156 38.6026V42.6035C33.5156 44.5452 31.9417 46.1191 30 46.1191C28.0583 46.1191 26.4844 44.5452 26.4844 42.6035V38.6026C21.0738 37.0723 17.1094 32.0978 17.1094 26.1973V21.5098C17.1094 14.3905 22.8807 8.61914 30 8.61914C37.1193 8.61914 42.8906 14.3905 42.8906 21.5098Z" fill="#E09380"/>
<path d="M42.8906 21.5105V26.198C42.8906 32.1501 38.8564 37.16 33.3731 38.6427C32.3157 38.9286 31.1999 38.9286 30.1425 38.6427C24.6592 37.16 20.625 32.1501 20.625 26.198V21.5105C20.625 14.9874 25.4701 9.59611 31.7578 8.73877C38.0455 9.596 42.8906 14.9874 42.8906 21.5105Z" fill="#FAA68E"/>
<path d="M56.2273 6.71555C56.2273 8.85669 54.5449 10.6048 52.43 10.7102L44.9229 15.715V10.7153H44.9228C42.7138 10.7153 40.923 8.92454 40.923 6.71555C40.923 4.50656 42.7138 2.71582 44.9228 2.71582H52.2274C54.4365 2.7157 56.2273 4.50645 56.2273 6.71555Z" fill="#B4E7FD"/>
<path d="M60.0017 6.71555C60.0017 8.92453 58.211 10.7153 56.002 10.7153H50.2557C48.0467 10.7153 46.256 8.92453 46.256 6.71555C46.256 4.50656 48.0467 2.71582 50.2557 2.71582H56.002C58.211 2.71582 60.0017 4.50656 60.0017 6.71555Z" fill="#B4E7FD"/>
<path d="M43.2394 21.0938H41.0163C38.4275 21.0938 36.3288 18.995 36.3288 16.4062V10.3091C34.0781 15.2866 29.0692 18.75 23.2514 18.75H17.032C18.2774 12.7289 23.6105 8.20312 30.0006 8.20312C32.2926 8.20312 34.4486 8.78543 36.3288 9.81C36.3535 9.82348 36.3781 9.83707 36.4028 9.85078C36.4066 9.85289 36.4103 9.85488 36.4141 9.85699C36.4376 9.87 36.4609 9.88312 36.4844 9.89637C36.4907 9.89988 36.497 9.9034 36.5033 9.90691C40.4314 12.1253 43.1138 16.2911 43.2394 21.0938Z" fill="#915041"/>
<path d="M31.7008 26.9867C31.2467 27.4408 30.6433 27.6909 30.0016 27.6909C29.3598 27.6909 28.7565 27.4408 28.3024 26.9867C27.9591 26.6433 27.9591 26.0869 28.3024 25.7437C28.6456 25.4005 29.2021 25.4005 29.5452 25.7437C29.6673 25.8658 29.8293 25.933 30.0014 25.933C30.1736 25.933 30.3355 25.8658 30.4577 25.7437C30.8009 25.4005 31.3574 25.4005 31.7005 25.7437C32.044 26.087 32.044 26.6434 31.7008 26.9867Z" fill="#D47F6C"/>
<path d="M37.3242 22.3887C37.3242 23.3595 36.5372 24.1465 35.5664 24.1465C34.5956 24.1465 33.8086 23.3595 33.8086 22.3887C33.8086 21.4179 34.5956 20.6309 35.5664 20.6309C36.5372 20.6309 37.3242 21.4179 37.3242 22.3887ZM24.4336 20.6309C23.4628 20.6309 22.6758 21.4179 22.6758 22.3887C22.6758 23.3595 23.4628 24.1465 24.4336 24.1465C25.4044 24.1465 26.1914 23.3595 26.1914 22.3887C26.1914 21.4179 25.4044 20.6309 24.4336 20.6309Z" fill="#4C2C21"/>
<path d="M26.4844 21.5098C26.4844 21.9952 26.0909 22.3887 25.6055 22.3887C25.1201 22.3887 24.7266 21.9952 24.7266 21.5098C24.7266 21.0244 25.1201 20.6309 25.6055 20.6309C26.0909 20.6309 26.4844 21.0244 26.4844 21.5098ZM36.7383 20.6309C36.2529 20.6309 35.8594 21.0244 35.8594 21.5098C35.8594 21.9952 36.2529 22.3887 36.7383 22.3887C37.2237 22.3887 37.6172 21.9952 37.6172 21.5098C37.6172 21.0244 37.2237 20.6309 36.7383 20.6309Z" fill="#FFF5F5"/>
<path d="M33.5156 30.8848C33.5156 32.8264 31.9417 34.4004 30 34.4004C28.0584 34.4004 26.4844 32.8264 26.4844 30.8848C26.4844 30.3994 26.8779 30.0059 27.3633 30.0059H32.6367C33.1221 30.0059 33.5156 30.3994 33.5156 30.8848Z" fill="#FFF5F5"/>
<path d="M30.8789 34.2896C30.598 34.362 30.3035 34.4004 30 34.4004C28.0584 34.4004 26.4844 32.8264 26.4844 30.8848C26.4844 30.3994 26.8779 30.0059 27.3633 30.0059H29.1211C28.6357 30.0059 28.2422 30.3994 28.2422 30.8848C28.2422 32.5229 29.3626 33.8993 30.8789 34.2896Z" fill="#E1EBF0"/>
<path d="M44.5438 21.5761V30.4888C44.5438 30.9743 44.1503 31.3677 43.6649 31.3677C43.6018 31.3677 43.5404 31.361 43.4813 31.3484C42.3789 33.4366 40.1846 34.8633 37.6635 34.8633H30.4677C29.9823 34.8633 29.5888 34.4699 29.5888 33.9844C29.5888 33.4989 29.9823 33.1055 30.4677 33.1055H37.6635C40.3189 33.1055 42.4794 30.945 42.4794 28.2895V28.125C42.4794 27.8582 42.5984 27.6192 42.786 27.458V21.5761C42.786 14.5253 37.0498 8.78906 29.9989 8.78906C22.9481 8.78906 17.2119 14.5253 17.2119 21.5761V30.4888C17.2119 30.9743 16.8184 31.3677 16.333 31.3677C15.8476 31.3677 15.4541 30.9743 15.4541 30.4888V21.5761C15.4541 13.5561 21.9789 7.03125 29.9989 7.03125C38.019 7.03125 44.5438 13.5561 44.5438 21.5761Z" fill="#B4D2D7"/>
<path d="M18.8672 24.0234V29.8828C18.8672 30.8536 18.0802 31.6406 17.1094 31.6406H15.9375C14.9667 31.6406 14.1797 30.8536 14.1797 29.8828V24.0234C14.1797 23.0527 14.9667 22.2656 15.9375 22.2656H17.1094C18.0802 22.2656 18.8672 23.0527 18.8672 24.0234ZM29.8828 32.2266H28.7109C27.7402 32.2266 26.9531 33.0136 26.9531 33.9844C26.9531 34.9552 27.7402 35.7422 28.7109 35.7422H29.8828C30.8536 35.7422 31.6406 34.9552 31.6406 33.9844C31.6406 33.0136 30.8536 32.2266 29.8828 32.2266ZM44.0625 22.2656H42.8906C41.9198 22.2656 41.1328 23.0527 41.1328 24.0234V29.8828C41.1328 30.8536 41.9198 31.6406 42.8906 31.6406H44.0625C45.0333 31.6406 45.8203 30.8536 45.8203 29.8828V24.0234C45.8203 23.0527 45.0333 22.2656 44.0625 22.2656Z" fill="#72D1FB"/>
<path d="M45.8203 24.0235V29.8829C45.8203 30.7538 45.1868 31.4769 44.3555 31.6163C43.5241 31.4769 42.8906 30.7538 42.8906 29.8829V24.0235C42.8906 23.1525 43.5241 22.4295 44.3555 22.29C45.1868 22.4295 45.8203 23.1525 45.8203 24.0235ZM17.4023 22.29C16.571 22.4295 15.9375 23.1525 15.9375 24.0235V29.8829C15.9375 30.7538 16.571 31.4769 17.4023 31.6163C18.2337 31.4769 18.8672 30.7538 18.8672 29.8829V24.0235C18.8672 23.1525 18.2337 22.4295 17.4023 22.29ZM30.1758 32.251C29.3445 32.3905 28.7109 33.1135 28.7109 33.9844C28.7109 34.8554 29.3445 35.5784 30.1758 35.7179C31.0071 35.5784 31.6406 34.8554 31.6406 33.9844C31.6406 33.1135 31.0071 32.3905 30.1758 32.251Z" fill="#93DCFC"/>
<path d="M47.7682 6.73828C47.7682 7.22367 47.3747 7.61719 46.8893 7.61719C46.4039 7.61719 46.0104 7.22367 46.0104 6.73828C46.0104 6.25289 46.4039 5.85938 46.8893 5.85938C47.3747 5.85938 47.7682 6.25289 47.7682 6.73828ZM50.486 5.85938C50.0006 5.85938 49.6071 6.25289 49.6071 6.73828C49.6071 7.22367 50.0006 7.61719 50.486 7.61719C50.9714 7.61719 51.3649 7.22367 51.3649 6.73828C51.3649 6.25289 50.9714 5.85938 50.486 5.85938ZM54.0321 5.85938C53.5467 5.85938 53.1532 6.25289 53.1532 6.73828C53.1532 7.22367 53.5467 7.61719 54.0321 7.61719C54.5175 7.61719 54.911 7.22367 54.911 6.73828C54.911 6.25289 54.5176 5.85938 54.0321 5.85938Z" fill="#738C96"/>
<path d="M40.8398 48.7617C40.3545 48.7617 39.9609 49.1552 39.9609 49.6406V58.3059C40.5557 58.0966 41.1418 57.8692 41.7188 57.6241V49.6406C41.7188 49.1552 41.3252 48.7617 40.8398 48.7617ZM19.1602 48.7617C18.6748 48.7617 18.2812 49.1552 18.2812 49.6406V57.624C18.8582 57.8691 19.4443 58.0965 20.0391 58.3058V49.6405C20.0391 49.1552 19.6455 48.7617 19.1602 48.7617Z" fill="#EDD578"/>
</g>
<defs>
<clipPath id="clip0_1_571">
<rect width="60" height="60" fill="white"/>
</clipPath>
</defs>
</svg>
