<svg width="60" height="60" viewBox="0 0 60 60" fill="none" xmlns="http://www.w3.org/2000/svg">
<path d="M7.62939e-06 30.0046C7.62939e-06 13.4394 13.4315 0.0106152 29.9999 0.010498C46.5614 0.010498 60.0465 13.5328 59.9999 30.091C59.9675 41.5792 53.4751 51.5484 43.9634 56.5585C43.4698 56.8184 42.8835 56.8258 42.3754 56.5955C38.6024 54.8852 34.4123 53.9327 29.9999 53.9327C25.5802 53.9327 21.3837 54.8882 17.6058 56.604C17.1098 56.8292 16.5373 56.8218 16.0553 56.5683C6.50954 51.549 7.62939e-06 41.5368 7.62939e-06 30.0046H7.62939e-06Z" fill="#2B3894"/>
<path d="M60 30.1052C60 46.6705 46.5686 60.0992 30.0001 60.0994C13.4386 60.0994 -0.0465229 46.5771 0.000120885 30.0189C0.0324667 18.5306 6.52489 8.56148 16.0366 3.55136C16.5302 3.29144 17.1165 3.28405 17.6247 3.51433C21.3976 5.22468 25.5877 6.17718 30.0001 6.17718C34.4198 6.17718 38.6163 5.22164 42.3942 3.5059C42.8902 3.28066 43.4627 3.28805 43.9447 3.54152C53.4905 8.5609 60 18.573 60 30.1052H60Z" fill="#2B3894"/>
<path opacity="0.1" d="M30.8125 12.9353H11.2969C10.6497 12.9353 10.125 13.46 10.125 14.1069V43.8178C10.125 44.4649 10.6497 44.9895 11.2969 44.9895H30.8125C31.4597 44.9895 31.9844 44.4649 31.9844 43.8178V14.1069C31.9844 13.46 31.4597 12.9353 30.8125 12.9353Z" fill="black"/>
<path d="M18.4513 42.3186H14.5052C13.858 42.3186 13.3334 41.7941 13.3334 41.1469V11.436C13.3334 10.7891 13.858 10.2644 14.5052 10.2644H18.4513C17.8041 10.2644 17.2794 10.7891 17.2794 11.436V41.1468C17.2794 41.7941 17.8042 42.3186 18.4513 42.3186Z" fill="#EAC23F"/>
<path d="M17.9544 10.2644H34.0241C34.6713 10.2644 35.196 10.7891 35.196 11.4363V41.1466C35.196 41.7938 34.6713 42.3185 34.0241 42.3185H17.9544C17.3072 42.3185 16.7826 41.7938 16.7826 41.1466V11.4363C16.7826 10.7892 17.3072 10.2644 17.9544 10.2644Z" fill="#E9CC5A"/>
<path d="M30.7282 34.4941C30.7282 34.9795 30.3347 35.3729 29.8493 35.3729H18.6833C18.1979 35.3729 17.8044 34.9795 17.8044 34.4942C17.8044 34.0089 18.1979 33.6154 18.6833 33.6154H29.8492C30.3347 33.6153 30.7282 34.0088 30.7282 34.4941ZM15.9036 21.0957C15.4183 21.0957 15.0247 21.4891 15.0247 21.9745V23.0888C15.0247 23.5741 15.4183 23.9676 15.9036 23.9676C16.389 23.9676 16.7826 23.5742 16.7826 23.0888V21.9745C16.7826 21.4892 16.389 21.0957 15.9036 21.0957ZM19.5658 23.9676C20.0511 23.9676 20.4447 23.5742 20.4447 23.0888V21.9745C20.4447 21.4892 20.0511 21.0957 19.5658 21.0957C19.0804 21.0957 18.6869 21.4891 18.6869 21.9745V23.0888C18.6869 23.5741 19.0804 23.9676 19.5658 23.9676ZM29.8493 29.9539H18.6833C18.1979 29.9539 17.8044 30.3474 17.8044 30.8327C17.8044 31.3181 18.1979 31.7114 18.6833 31.7114H29.8492C30.3346 31.7114 30.7281 31.3181 30.7281 30.8327C30.7282 30.3474 30.3347 29.9539 29.8493 29.9539ZM29.8493 26.2926H18.6833C18.1979 26.2926 17.8044 26.686 17.8044 27.1714C17.8044 27.6567 18.1979 28.0501 18.6833 28.0501H29.8492C30.3346 28.0501 30.7281 27.6567 30.7281 27.1714C30.7282 26.686 30.3347 26.2926 29.8493 26.2926Z" fill="#C3A01A"/>
<path d="M16.0599 11.5345C16.0599 6.93855 19.8411 3.22558 24.4628 3.33538C28.7996 3.43839 32.3415 6.96362 32.4629 11.2991C32.5312 13.7384 31.5339 15.9459 29.9024 17.4906C29.6563 17.7235 29.2805 17.7519 29.0042 17.5559C27.6654 16.6063 26.0295 16.0481 24.263 16.0481C22.5063 16.0481 20.8785 16.6002 19.5439 17.5404C19.2544 17.7443 18.8614 17.7171 18.6051 17.4729C17.037 15.9791 16.0599 13.8709 16.0599 11.5345Z" fill="#3D4EC6"/>
<path d="M28.8361 9.15151V14.233H19.6341V9.15151C19.6341 6.73944 21.5899 4.78394 24.0025 4.78394H24.4679C26.8804 4.78394 28.8361 6.73944 28.8361 9.15151Z" fill="#F5E8B4"/>
<path d="M24.0817 15.3357C22.6949 15.3357 21.5706 16.4598 21.5706 17.8464V18.251C21.5706 18.7646 21.0283 19.0928 20.5697 18.8614C19.8265 18.4863 19.1482 18.0016 18.556 17.4283C18.7551 16.2407 19.788 15.3357 21.0324 15.3357H24.0817Z" fill="#CC4646"/>
<path d="M29.9694 17.4284C28.4931 18.8574 26.4814 19.7368 24.2642 19.7368C22.9031 19.7368 21.6195 19.4053 20.4896 18.8189V17.8464C20.4896 16.4598 21.6139 15.3357 23.0008 15.3357H27.493C28.7373 15.3358 29.7703 16.2409 29.9694 17.4284Z" fill="#E5554E"/>
<path d="M29.105 10.8512V11.1756C29.105 11.6535 28.7457 12.0732 28.2688 12.1046C28.1586 12.1119 28.0525 12.0991 27.9534 12.0698C27.5139 13.2295 26.5433 14.128 25.3384 14.4688V15.6564C25.3384 16.2294 24.9059 16.7298 24.3339 16.7669C23.707 16.8076 23.1859 16.3113 23.1859 15.6934V14.4688C21.9811 14.1281 21.0104 13.2295 20.5709 12.0698C20.4717 12.0991 20.3654 12.1119 20.2553 12.1046C19.7785 12.0731 19.4193 11.6535 19.4193 11.1756V10.8513C19.4193 10.3561 19.8208 9.95472 20.3161 9.95472V9.23741C20.3161 8.50616 20.5151 7.82144 20.8618 7.23433C20.9838 7.02772 21.224 6.92284 21.4582 6.97487C22.3222 7.16683 23.2691 7.27276 24.2622 7.27276C25.2553 7.27276 26.2022 7.16683 27.0662 6.97487C27.3005 6.92284 27.5406 7.02772 27.6626 7.23433C28.0093 7.82144 28.2083 8.50616 28.2083 9.23741V9.95472C28.7034 9.9546 29.105 10.3561 29.105 10.8512Z" fill="#E09380"/>
<path d="M28.209 9.23692V10.6715C28.209 12.4474 27.0355 13.949 25.4216 14.4439C23.8077 13.949 22.6342 12.4473 22.6342 10.6715V9.23692C22.6342 8.45961 22.8591 7.73469 23.2473 7.12391C24.2531 5.54141 27.6551 7.21918 27.6832 7.26782C28.0177 7.84731 28.209 8.51973 28.209 9.23692Z" fill="#FAA68E"/>
<path d="M23.4009 10.4688C23.4009 10.7401 23.1809 10.96 22.9096 10.96H22.4184C22.1471 10.96 21.9271 10.7401 21.9271 10.4688C21.9271 10.1975 22.1471 9.97766 22.4184 9.97766H22.9096C23.1809 9.97754 23.4009 10.1975 23.4009 10.4688ZM26.103 9.97754H25.6117C25.3404 9.97754 25.1204 10.1974 25.1204 10.4687C25.1204 10.74 25.3403 10.9599 25.6117 10.9599H26.103C26.3743 10.9599 26.5942 10.74 26.5942 10.4687C26.5942 10.1974 26.3743 9.97754 26.103 9.97754Z" fill="#915041"/>
<path d="M24.9988 12.2362V12.2854C24.9988 12.6923 24.6689 13.0222 24.2618 13.0222C23.8548 13.0222 23.5248 12.6923 23.5248 12.2854V12.2362C23.5248 12.1277 23.6128 12.0398 23.7213 12.0398H24.8021C24.9108 12.0398 24.9988 12.1278 24.9988 12.2362Z" fill="#FFF5F5"/>
<path d="M24.2648 5.29175C25.765 5.29175 27.0747 6.08675 27.7742 7.268C26.7261 7.55733 25.5319 7.72116 24.2646 7.72116C22.9975 7.72116 21.8034 7.55733 20.7552 7.268C21.4548 6.08675 22.7645 5.29175 24.2648 5.29175Z" fill="#F5E8B4"/>
<path opacity="0.1" d="M45.8125 22.9353H26.2969C25.6497 22.9353 25.125 23.46 25.125 24.1069V53.8178C25.125 54.4649 25.6497 54.9895 26.2969 54.9895H45.8125C46.4597 54.9895 46.9844 54.4649 46.9844 53.8178V24.1069C46.9844 23.46 46.4597 22.9353 45.8125 22.9353Z" fill="black"/>
<path d="M33.2586 52.3186H29.3125C28.6653 52.3186 28.1406 51.7941 28.1406 51.1469V21.436C28.1406 20.7891 28.6653 20.2644 29.3125 20.2644H33.2586C32.6113 20.2644 32.0867 20.7891 32.0867 21.436V51.1468C32.0867 51.7941 32.6113 52.3186 33.2586 52.3186Z" fill="#E5554E"/>
<path d="M31.586 21.4363V51.1466C31.586 51.7938 32.1106 52.3185 32.7579 52.3185H48.8275C49.4748 52.3185 49.9994 51.7938 49.9994 51.1466V21.4363C49.9994 20.7891 49.4748 20.2644 48.8275 20.2644H32.7579C32.1106 20.2644 31.586 20.7892 31.586 21.4363Z" fill="#F76C57"/>
<path d="M44.6502 36.2927H33.4844C32.999 36.2927 32.6055 36.6862 32.6055 37.1715C32.6055 37.6568 32.999 38.0502 33.4844 38.0502H44.6502C45.1356 38.0502 45.5291 37.6568 45.5291 37.1715C45.5291 36.6862 45.1356 36.2927 44.6502 36.2927ZM44.6502 39.9541H33.4844C32.999 39.9541 32.6055 40.3476 32.6055 40.8329C32.6055 41.3182 32.999 41.7116 33.4844 41.7116H44.6502C45.1356 41.7116 45.5291 41.3182 45.5291 40.8329C45.5291 40.3476 45.1356 39.9541 44.6502 39.9541ZM44.6502 43.6155H33.4844C32.999 43.6155 32.6055 44.009 32.6055 44.4943C32.6055 44.9796 32.999 45.373 33.4844 45.373H44.6502C45.1356 45.373 45.5291 44.9796 45.5291 44.4943C45.5291 44.009 45.1356 43.6155 44.6502 43.6155ZM43.245 47.7013C42.7597 47.7013 42.3661 48.0947 42.3661 48.58V49.6943C42.3661 50.1795 42.7597 50.573 43.245 50.573C43.7304 50.573 44.1239 50.1796 44.1239 49.6943V48.58C44.1239 48.0947 43.7304 47.7013 43.245 47.7013ZM46.9072 47.7013C46.4218 47.7013 46.0282 48.0947 46.0282 48.58V49.6943C46.0282 50.1795 46.4218 50.573 46.9072 50.573C47.3925 50.573 47.7861 50.1796 47.7861 49.6943V48.58C47.7861 48.0947 47.3925 47.7013 46.9072 47.7013Z" fill="#CC4646"/>
<path d="M30.8672 21.5401C30.8672 16.9442 34.6484 13.2312 39.2701 13.341C43.6069 13.444 47.1488 16.9692 47.2702 21.3047C47.3385 23.744 46.3412 25.9515 44.7097 27.4962C44.4637 27.7292 44.0878 27.7575 43.8115 27.5615C42.4728 26.6119 40.8368 26.0537 39.0703 26.0537C37.3136 26.0537 35.6858 26.6058 34.3512 27.546C34.0617 27.7499 33.6687 27.7227 33.4124 27.4785C31.8444 25.9847 30.8672 23.8765 30.8672 21.5401Z" fill="#3D4EC6"/>
<path d="M43.6473 16.2736V21.2482H34.4453V19.1575C34.4453 16.7454 36.401 14.79 38.8137 14.79H42.1634C42.983 14.79 43.6473 15.4543 43.6473 16.2736Z" fill="#4C2C21"/>
<path d="M38.8928 25.3418C37.506 25.3418 36.3817 26.4659 36.3817 27.8525V28.2571C36.3817 28.7707 35.8395 29.0989 35.3808 28.8675C34.6376 28.4924 33.9593 28.0077 33.3672 27.4344C33.5663 26.2468 34.5992 25.3418 35.8436 25.3418H38.8928Z" fill="#EAC23F"/>
<path d="M44.7767 27.4345C43.3003 28.8635 41.2887 29.7429 39.0715 29.7429C37.7104 29.7429 36.4268 29.4114 35.2969 28.825V27.8525C35.2969 26.4659 36.4212 25.3418 37.8081 25.3418H42.3003C43.5446 25.3419 44.5776 26.247 44.7767 27.4345Z" fill="#E9CC5A"/>
<path d="M43.9163 20.8573V21.1817C43.9163 21.6596 43.557 22.0793 43.0801 22.1107C42.9699 22.118 42.8637 22.1052 42.7647 22.0759C42.3252 23.2356 41.3546 24.1341 40.1497 24.4749V25.6625C40.1497 26.2355 39.7171 26.7359 39.1452 26.773C38.5183 26.8137 37.9972 26.3174 37.9972 25.6995V24.4749C36.7924 24.1342 35.8217 23.2356 35.3821 22.0759C35.283 22.1052 35.1767 22.118 35.0664 22.1107C34.5896 22.0792 34.2304 21.6596 34.2304 21.1817V20.8574C34.2304 20.3622 34.6319 19.9608 35.1273 19.9608V19.2435C35.1273 18.5123 35.3262 17.8275 35.673 17.2404C35.795 17.0338 36.0351 16.9289 36.2694 16.981C37.1334 17.1729 38.0803 17.2789 39.0733 17.2789C40.0664 17.2789 41.0134 17.1729 41.8774 16.981C42.1116 16.9289 42.3518 17.0338 42.4737 17.2404C42.8205 17.8275 43.0195 18.5123 43.0195 19.2435V19.9608C43.5147 19.9607 43.9163 20.3622 43.9163 20.8573Z" fill="#A65D4E"/>
<path d="M43.0162 19.244V20.6786C43.0162 22.4545 41.8427 23.9561 40.2288 24.451C38.6149 23.9561 37.4414 22.4543 37.4414 20.6786V19.244C37.4414 18.4667 37.6663 17.7418 38.0545 17.131C39.0603 15.5485 42.4623 17.2263 42.4904 17.2749C42.8249 17.8544 43.0162 18.5268 43.0162 19.244Z" fill="#B46E5A"/>
<path d="M39.8088 22.5375C39.8088 22.8088 39.5888 23.0287 39.3174 23.0287H38.8262C38.5549 23.0287 38.3349 22.8088 38.3349 22.5375C38.3349 22.2662 38.5549 22.0464 38.8262 22.0464H39.3174C39.5888 22.0464 39.8088 22.2662 39.8088 22.5375ZM38.2121 20.4745C38.2121 20.7458 37.9922 20.9658 37.7208 20.9658H37.2295C36.9582 20.9658 36.7383 20.7458 36.7383 20.4745C36.7383 20.2032 36.9582 19.9834 37.2295 19.9834H37.7208C37.9922 19.9834 38.2121 20.2032 38.2121 20.4745ZM40.9142 19.9834H40.423C40.1517 19.9834 39.9316 20.2032 39.9316 20.4745C39.9316 20.7458 40.1516 20.9658 40.423 20.9658H40.9142C41.1855 20.9658 41.4055 20.7458 41.4055 20.4745C41.4055 20.2032 41.1855 19.9834 40.9142 19.9834Z" fill="#915041"/>
<path d="M39.069 15.2979C40.5948 15.2979 41.9266 16.0929 42.6382 17.2741C41.5723 17.5634 40.3578 17.7273 39.069 17.7273C37.7803 17.7273 36.5658 17.5634 35.5 17.2741C36.2113 16.0929 37.5432 15.2979 39.069 15.2979Z" fill="#4C2C21"/>
</svg>
