<svg width="1140" height="468" viewBox="0 0 1140 468" fill="none" xmlns="http://www.w3.org/2000/svg">
<mask id="mask0_1_918" style="mask-type:alpha" maskUnits="userSpaceOnUse" x="0" y="0" width="1140" height="468">
<rect width="1140" height="468" rx="40" fill="#F5DCFF"/>
<rect x="0.5" y="0.5" width="1139" height="467" rx="39.5" stroke="black" stroke-opacity="0.06"/>
</mask>
<g mask="url(#mask0_1_918)">
<path opacity="0.1" d="M401.976 540.265C349.752 393.501 379.465 268.637 491.115 165.672C602.764 62.7074 733.795 -4.98977 884.207 -37.4193C1034.62 -69.8488 1157.3 -21.0656 1252.26 108.93C1347.22 238.926 1381.91 382.659 1356.33 540.129C1330.76 697.598 1244.95 778.811 1098.91 783.767C952.876 788.723 813.266 786.069 680.084 775.805C546.902 765.542 454.199 687.028 401.976 540.265Z" fill="url(#paint0_linear_1_918)"/>
<path opacity="0.2" d="M571.141 481.072C533.063 374.064 554.728 283.022 636.134 207.948C717.54 132.874 813.078 83.5144 922.747 59.8692C1032.42 36.2241 1121.87 71.7931 1191.1 166.576C1260.34 261.359 1285.63 366.158 1266.98 480.973C1248.34 595.788 1185.77 655.002 1079.29 658.616C972.815 662.229 871.022 660.294 773.916 652.811C676.81 645.327 609.218 588.081 571.141 481.072Z" fill="url(#paint1_linear_1_918)"/>
<path opacity="0.6" d="M732.776 396.15C706.488 322.273 721.444 259.419 777.646 207.589C833.848 155.759 899.806 121.682 975.519 105.357C1051.23 89.033 1112.99 113.589 1160.79 179.026C1208.59 244.463 1226.05 316.815 1213.18 396.081C1200.3 475.348 1157.11 516.228 1083.6 518.723C1010.09 521.218 939.81 519.882 872.769 514.715C805.728 509.549 759.064 470.027 732.776 396.15Z" fill="url(#paint2_linear_1_918)"/>
</g>
<defs>
<linearGradient id="paint0_linear_1_918" x1="1507.46" y1="696.604" x2="329.37" y2="201.739" gradientUnits="userSpaceOnUse">
<stop stop-color="#FFEAAA"/>
<stop offset="1" stop-color="#A6FFE5"/>
</linearGradient>
<linearGradient id="paint1_linear_1_918" x1="1377.17" y1="595.063" x2="518.202" y2="234.245" gradientUnits="userSpaceOnUse">
<stop stop-color="#FFEAAA"/>
<stop offset="1" stop-color="#A6FFE5"/>
</linearGradient>
<linearGradient id="paint2_linear_1_918" x1="1289.25" y1="474.847" x2="696.228" y2="225.744" gradientUnits="userSpaceOnUse">
<stop stop-color="#FFEAAA"/>
<stop offset="1" stop-color="#A6FFE5"/>
</linearGradient>
</defs>
</svg>
