<svg width="130" height="50" viewBox="0 0 130 50" fill="none" xmlns="http://www.w3.org/2000/svg">
<path d="M13.8128 25.699C15.6485 25.699 17.2162 25.0026 18.5158 23.6098C19.8154 22.217 20.4652 20.5101 20.4652 18.4892C20.4652 16.4682 19.8154 14.7614 18.5158 13.3686C17.2162 11.9757 15.6485 11.2793 13.8128 11.2793C11.9043 11.2793 10.432 11.9439 9.39597 13.273V6.19971H5.87891V25.3166H9.39597V23.7054C10.432 25.0344 11.9043 25.699 13.8128 25.699ZM13.1584 22.3399C12.0679 22.3399 11.1681 21.9849 10.4593 21.2747C9.75041 20.5466 9.39597 19.618 9.39597 18.4892C9.39597 17.3604 9.75041 16.4364 10.4593 15.7172C11.1681 14.9981 12.0679 14.6385 13.1584 14.6385C14.249 14.6385 15.1532 14.9981 15.8712 15.7172C16.5892 16.4364 16.9481 17.3604 16.9481 18.4892C16.9481 19.618 16.5892 20.5419 15.8712 21.2611C15.1532 21.9802 14.249 22.3399 13.1584 22.3399ZM26.4633 25.3166V18.7896C26.4633 17.4787 26.8859 16.5411 27.731 15.9767C28.5763 15.4122 29.535 15.1938 30.6075 15.3212V11.3886C29.6805 11.3886 28.8398 11.6071 28.0855 12.044C27.3312 12.481 26.7905 13.1364 26.4633 14.0103V11.6617H22.9462V25.3166H26.4633ZM39.4138 25.699C42.0311 25.699 44.0123 24.7249 45.3574 22.7768L42.5218 21.1383C41.8311 22.0485 40.8133 22.5037 39.4683 22.5037C37.3781 22.5037 36.0966 21.648 35.6241 19.9365H45.9027C45.9935 19.4268 46.0389 18.9443 46.0389 18.4892C46.0389 16.45 45.3892 14.7386 44.0895 13.3549C42.79 11.9712 41.1404 11.2793 39.1411 11.2793C37.0327 11.2793 35.306 11.9667 33.961 13.3413C32.6158 14.7159 31.9433 16.4318 31.9433 18.4892C31.9433 20.5647 32.625 22.2852 33.9882 23.6508C35.3514 25.0163 37.1599 25.699 39.4138 25.699ZM42.5218 17.2056H35.5695C35.7695 16.3317 36.1784 15.6535 36.7964 15.171C37.4144 14.6885 38.196 14.4473 39.1411 14.4473C39.9409 14.4473 40.6543 14.6749 41.2813 15.13C41.9084 15.5852 42.3219 16.2771 42.5218 17.2056ZM54.409 25.699C56.3175 25.699 57.7988 25.0344 58.8531 23.7054V25.3166H62.3701V11.6617H58.8531V13.273C57.7988 11.9439 56.3175 11.2793 54.409 11.2793C52.5914 11.2793 51.0329 11.9757 49.7332 13.3686C48.4337 14.7614 47.7838 16.4682 47.7838 18.4892C47.7838 20.5101 48.4337 22.217 49.7332 23.6098C51.0329 25.0026 52.5914 25.699 54.409 25.699ZM55.0633 22.3399C53.9728 22.3399 53.0731 21.9849 52.3642 21.2747C51.6554 20.5466 51.3009 19.618 51.3009 18.4892C51.3009 17.3604 51.6554 16.4364 52.3642 15.7172C53.0731 14.9981 53.9728 14.6385 55.0633 14.6385C56.1539 14.6385 57.0582 14.9981 57.7762 15.7172C58.4941 16.4364 58.8531 17.3604 58.8531 18.4892C58.8531 19.618 58.4941 20.5419 57.7762 21.2611C57.0582 21.9802 56.1539 22.3399 55.0633 22.3399ZM69.0772 25.3166V19.1173L74.0392 25.3166H78.1288L72.4851 18.4072L77.9652 11.6617H73.7666L69.0772 17.6699V6.19971H65.5601V25.3166H69.0772ZM86.4716 25.6717C88.471 25.6717 90.1704 24.9798 91.57 23.5961C92.9695 22.2124 93.6694 20.5101 93.6694 18.4892C93.6694 16.4682 92.9695 14.7659 91.57 13.3822C90.1704 11.9985 88.471 11.3067 86.4716 11.3067C84.4723 11.3067 82.7773 11.9985 81.3868 13.3822C79.9964 14.7659 79.3011 16.4682 79.3011 18.4892C79.3011 20.5101 79.9964 22.2124 81.3868 23.5961C82.7773 24.9798 84.4723 25.6717 86.4716 25.6717ZM86.4716 23.3504C85.1266 23.3504 83.9905 22.8861 83.0636 21.9576C82.1366 21.029 81.6732 19.8729 81.6732 18.4892C81.6732 17.1055 82.1366 15.9493 83.0636 15.0208C83.9905 14.0923 85.1266 13.628 86.4716 13.628C87.8348 13.628 88.9799 14.0923 89.9069 15.0208C90.8338 15.9493 91.2974 17.1055 91.2974 18.4892C91.2974 19.8729 90.8338 21.029 89.9069 21.9576C88.9799 22.8861 87.8348 23.3504 86.4716 23.3504ZM101.467 25.6717C103.448 25.6717 104.92 24.8979 105.884 23.3504V25.3166H108.256V11.6617H105.884V18.8988C105.884 20.4281 105.52 21.5616 104.793 22.2989C104.066 23.0362 103.112 23.4049 101.93 23.4049C100.876 23.4049 100.049 23.1 99.4493 22.4901C98.8494 21.8801 98.5495 21.0199 98.5495 19.9092V11.6617H96.1776V20.0458C96.1776 21.7755 96.6593 23.1455 97.6226 24.156C98.586 25.1664 99.8674 25.6717 101.467 25.6717ZM114.717 24.8114C115.681 25.4213 117.198 25.5897 119.27 25.3166V23.1865C118.471 23.2228 117.798 23.2365 117.253 23.2275C116.708 23.2183 116.303 23.0727 116.039 22.7905C115.776 22.5083 115.644 22.0304 115.644 21.3567V13.9557H119.27V11.6617H115.644V7.8383L113.272 8.54836V11.6617H110.573V13.9557H113.272V21.3567C113.272 23.0499 113.754 24.2015 114.717 24.8114Z" fill="white"/>
<path d="M123.805 25.6997C124.365 25.6997 124.828 25.5097 125.197 25.1297C125.565 24.7497 125.75 24.2897 125.75 23.7497C125.75 23.2098 125.565 22.7498 125.197 22.3698C124.828 21.9899 124.365 21.7998 123.805 21.7998C123.267 21.7998 122.809 21.9899 122.43 22.3698C122.052 22.7498 121.862 23.2098 121.862 23.7497C121.862 24.2897 122.052 24.7497 122.43 25.1297C122.809 25.5097 123.267 25.6997 123.805 25.6997Z" fill="#14CC60"/>
<path d="M57.8597 32.0372H59.0216V40.8392H57.8597V39.4661C57.2025 40.5224 56.2167 41.0505 54.9022 41.0505C53.8343 41.0505 52.9893 40.7277 52.3673 40.0823C51.757 39.425 51.4518 38.5448 51.4518 37.4417V32.0372H52.6137V37.4417C52.6137 38.228 52.8191 38.8382 53.2299 39.2725C53.6523 39.7067 54.245 39.9238 55.0079 39.9238C55.8529 39.9238 56.5394 39.6598 57.0675 39.1316C57.5957 38.5918 57.8597 37.7644 57.8597 36.6495V32.0372Z" fill="#A3A5A7"/>
<path d="M65.0119 31.826C66.0799 31.826 66.9191 32.1546 67.5293 32.8118C68.1513 33.4573 68.4623 34.3316 68.4623 35.4348V40.8392H67.3005V35.4348C67.3005 34.6485 67.0892 34.0382 66.6667 33.604C66.256 33.1697 65.6692 32.9526 64.9063 32.9526C64.0613 32.9526 63.3748 33.2226 62.8467 33.7624C62.3185 34.2905 62.0545 35.1121 62.0545 36.227V40.8392H60.8926V32.0372H62.0545V33.4103C62.7117 32.3541 63.6975 31.826 65.0119 31.826Z" fill="#A3A5A7"/>
<path d="M71.3016 29.9247C71.1373 30.089 70.9378 30.1712 70.703 30.1712C70.4683 30.1712 70.2688 30.089 70.1045 29.9247C69.9402 29.7604 69.8581 29.5609 69.8581 29.3262C69.8581 29.0915 69.9402 28.892 70.1045 28.7277C70.2688 28.5634 70.4683 28.4812 70.703 28.4812C70.9378 28.4812 71.1373 28.5634 71.3016 28.7277C71.4659 28.892 71.548 29.0915 71.548 29.3262C71.548 29.5609 71.4659 29.7604 71.3016 29.9247ZM70.1221 40.8392V32.0372H71.284V40.8392H70.1221Z" fill="#A3A5A7"/>
<path d="M79.5002 32.0372H80.7324L77.1236 40.8392H75.7153L72.1065 32.0372H73.3387L76.4195 39.6246L79.5002 32.0372Z" fill="#A3A5A7"/>
<path d="M85.2725 31.826C86.5752 31.826 87.6256 32.2895 88.4237 33.2167C89.2335 34.1321 89.6383 35.2177 89.6383 36.4734C89.6383 36.6025 89.6266 36.7844 89.6031 37.0192H81.875C81.9923 37.9111 82.3679 38.6211 83.0016 39.1492C83.6471 39.6656 84.4393 39.9238 85.3782 39.9238C86.0471 39.9238 86.6222 39.7889 87.1034 39.5189C87.5963 39.2373 87.966 38.8735 88.2124 38.4275L89.2335 39.026C88.8462 39.648 88.318 40.1409 87.6491 40.5048C86.9801 40.8686 86.2173 41.0505 85.3606 41.0505C83.9757 41.0505 82.8491 40.6163 81.9806 39.7478C81.1121 38.8793 80.6779 37.7761 80.6779 36.4382C80.6779 35.1238 81.1063 34.0265 81.963 33.1463C82.8197 32.2661 83.9229 31.826 85.2725 31.826ZM85.2725 32.9526C84.3571 32.9526 83.5884 33.2284 82.9664 33.78C82.3561 34.3199 81.9923 35.024 81.875 35.8925H88.4413C88.3239 34.9654 87.966 34.2436 87.3674 33.7272C86.7689 33.2108 86.0706 32.9526 85.2725 32.9526Z" fill="#A3A5A7"/>
<path d="M92.0616 33.4984C92.6014 32.4304 93.5286 31.8964 94.843 31.8964V33.023C94.0449 33.023 93.3819 33.2578 92.8537 33.7272C92.3256 34.1966 92.0616 34.936 92.0616 35.9453V40.8392H90.8997V32.0372H92.0616V33.4984Z" fill="#A3A5A7"/>
<path d="M96.4201 34.3433C96.4201 34.7424 96.5962 35.0592 96.9482 35.294C97.3003 35.5287 97.7287 35.7106 98.2333 35.8397C98.738 35.9688 99.2426 36.1155 99.7473 36.2798C100.252 36.4324 100.68 36.6964 101.032 37.072C101.384 37.4358 101.56 37.917 101.56 38.5155C101.56 39.2666 101.261 39.8769 100.663 40.3463C100.076 40.8158 99.313 41.0505 98.3742 41.0505C97.5292 41.0505 96.8074 40.8627 96.2089 40.4872C95.6221 40.1116 95.2113 39.6246 94.9766 39.026L95.9624 38.4451C96.1267 38.9028 96.4201 39.2666 96.8426 39.5365C97.2768 39.7947 97.7874 39.9238 98.3742 39.9238C98.9492 39.9238 99.4304 39.8123 99.8177 39.5893C100.205 39.3546 100.399 38.9967 100.399 38.5155C100.399 38.1165 100.223 37.7996 99.8705 37.5649C99.5184 37.3302 99.0901 37.1483 98.5854 37.0192C98.0808 36.8901 97.5761 36.7492 97.0715 36.5967C96.5668 36.4324 96.1385 36.1683 95.7864 35.8045C95.4343 35.4289 95.2583 34.9419 95.2583 34.3433C95.2583 33.6274 95.5399 33.0289 96.1032 32.5477C96.6783 32.0666 97.4001 31.826 98.2685 31.826C98.9844 31.826 99.6123 31.9903 100.152 32.3189C100.692 32.6358 101.091 33.07 101.349 33.6216L100.381 34.1849C100.041 33.3634 99.3365 32.9526 98.2685 32.9526C97.7639 32.9526 97.3297 33.0759 96.9658 33.3223C96.602 33.557 96.4201 33.8974 96.4201 34.3433Z" fill="#A3A5A7"/>
<path d="M104.005 29.9247C103.841 30.089 103.642 30.1712 103.407 30.1712C103.172 30.1712 102.973 30.089 102.808 29.9247C102.644 29.7604 102.562 29.5609 102.562 29.3262C102.562 29.0915 102.644 28.892 102.808 28.7277C102.973 28.5634 103.172 28.4812 103.407 28.4812C103.642 28.4812 103.841 28.5634 104.005 28.7277C104.17 28.892 104.252 29.0915 104.252 29.3262C104.252 29.5609 104.17 29.7604 104.005 29.9247ZM102.826 40.8392V32.0372H103.988V40.8392H102.826Z" fill="#A3A5A7"/>
<path d="M110.532 33.1639H107.997V38.4979C107.997 38.9791 108.091 39.3253 108.278 39.5365C108.466 39.736 108.748 39.8417 109.123 39.8534C109.499 39.8534 109.968 39.8417 110.532 39.8182V40.8392C109.299 41.027 108.372 40.939 107.75 40.5752C107.14 40.2114 106.835 39.5189 106.835 38.4979V33.1639H104.986V32.0372H106.835V29.9247L107.997 29.5727V32.0372H110.532V33.1639Z" fill="#A3A5A7"/>
<path d="M118.391 32.0372H119.623L115.856 41.649C115.515 42.5175 115.028 43.1982 114.395 43.6911C113.773 44.1957 113.074 44.4187 112.3 44.36V43.2686C113.356 43.386 114.16 42.7757 114.711 41.4378L114.94 40.892L110.997 32.0372H112.229L115.539 39.4133L118.391 32.0372Z" fill="#A3A5A7"/>
</svg>
