<svg width="36" height="36" viewBox="0 0 36 36" fill="none" xmlns="http://www.w3.org/2000/svg">
<g filter="url(#filter0_d_1_1490)">
<path d="M27.9188 8.06898C25.2866 5.44659 21.7866 4.0016 18.0577 4C10.3735 4 4.12012 10.2239 4.11704 17.8739C4.11614 20.3193 4.75791 22.7063 5.97773 24.8104L4 32L11.3901 30.0707C13.4262 31.1763 15.7187 31.7588 18.0517 31.7598H18.0576H18.0577C25.7406 31.7598 31.9949 25.5348 31.9982 17.8851C31.9994 14.1776 30.5506 10.6915 27.9188 8.06898ZM18.0577 29.4164H18.0531C15.9737 29.4153 13.9345 28.8595 12.1558 27.8087L11.7325 27.5589L7.34705 28.7036L8.5179 24.4482L8.2421 24.0119C7.08216 22.1757 6.4698 20.0537 6.47068 17.8748C6.47322 11.5163 11.6708 6.34344 18.062 6.34344C21.157 6.34472 24.066 7.54581 26.2537 9.72546C28.4413 11.9051 29.6452 14.8026 29.6443 17.8842C29.6416 24.2428 24.4439 29.4164 18.0577 29.4164Z" fill="#E0E0E0"/>
<path d="M4.64099 31.2018L6.52838 24.3407C5.36398 22.3326 4.75165 20.0545 4.75238 17.7213C4.75544 10.4208 10.7232 4.48145 18.0557 4.48145C21.6146 4.48305 24.9548 5.86195 27.4661 8.36462C29.978 10.8673 31.3605 14.1938 31.3591 17.7316C31.356 25.0322 25.3879 30.9722 18.0563 30.9722C18.0557 30.9722 18.0566 30.9722 18.0563 30.9722H18.0503C15.824 30.9715 13.6363 30.415 11.6934 29.3608L4.64099 31.2018Z" fill="url(#paint0_linear_1_1490)"/>
<path fill-rule="evenodd" clip-rule="evenodd" d="M14.6093 11.9827C14.3514 11.4118 14.0799 11.4004 13.8345 11.3904C13.6338 11.3818 13.404 11.3823 13.1746 11.3823C12.945 11.3823 12.572 11.4682 12.2565 11.8113C11.9408 12.1543 11.0512 12.9836 11.0512 14.6701C11.0512 16.3569 12.2852 17.9867 12.4572 18.2156C12.6294 18.4442 14.8393 22.0159 18.3391 23.39C21.2477 24.532 21.8396 24.3048 22.4709 24.2477C23.1023 24.1905 24.5081 23.4186 24.7951 22.6181C25.082 21.8177 25.082 21.1317 24.9959 20.9883C24.9098 20.8454 24.6803 20.7597 24.3359 20.5883C23.9915 20.4168 22.2988 19.5874 21.9831 19.4731C21.6674 19.3588 21.4378 19.3017 21.2083 19.6449C20.9787 19.9877 20.3192 20.7597 20.1183 20.9883C19.9174 21.2173 19.7165 21.2459 19.3722 21.0745C19.0278 20.9025 17.9188 20.5409 16.6032 19.3731C15.5796 18.4645 14.8886 17.3424 14.6877 16.9992C14.4868 16.6563 14.6662 16.4706 14.8389 16.2997C14.9935 16.1461 15.1833 15.8995 15.3554 15.6994C15.5273 15.4992 15.5846 15.3563 15.6994 15.1278C15.8142 14.8988 15.7568 14.6987 15.6707 14.5272C15.5846 14.3558 14.9155 12.6605 14.6093 11.9827Z" fill="white"/>
<path d="M27.8052 8.02301C25.2033 5.43073 21.7435 4.00236 18.0573 4.00073C10.4613 4.00073 4.27975 10.1532 4.2767 17.7154C4.2758 20.1327 4.91019 22.4923 6.11601 24.5723L4.16101 31.6793L11.4663 29.7722C13.479 30.865 15.7452 31.4409 18.0514 31.4418H18.0573H18.0573C25.652 31.4418 31.8345 25.2883 31.8378 17.7264C31.839 14.0615 30.4068 10.6155 27.8052 8.02301ZM18.0573 29.1254H18.0528C15.9972 29.1243 13.9814 28.5749 12.2232 27.5361L11.8047 27.2892L7.46963 28.4208L8.62702 24.2142L8.3544 23.783C7.20777 21.9678 6.60244 19.8702 6.60333 17.7163C6.60584 11.4308 11.7437 6.31732 18.0616 6.31732C21.1211 6.31858 23.9966 7.50587 26.1593 9.6605C28.3218 11.8151 29.5119 14.6794 29.511 17.7256C29.5083 24.0112 24.3702 29.1254 18.0573 29.1254Z" fill="white"/>
</g>
<defs>
<filter id="filter0_d_1_1490" x="2" y="3" width="31.9982" height="32" filterUnits="userSpaceOnUse" color-interpolation-filters="sRGB">
<feFlood flood-opacity="0" result="BackgroundImageFix"/>
<feColorMatrix in="SourceAlpha" type="matrix" values="0 0 0 0 0 0 0 0 0 0 0 0 0 0 0 0 0 0 127 0" result="hardAlpha"/>
<feOffset dy="1"/>
<feGaussianBlur stdDeviation="1"/>
<feColorMatrix type="matrix" values="0 0 0 0 0 0 0 0 0 0 0 0 0 0 0 0 0 0 0.08 0"/>
<feBlend mode="normal" in2="BackgroundImageFix" result="effect1_dropShadow_1_1490"/>
<feBlend mode="normal" in="SourceGraphic" in2="effect1_dropShadow_1_1490" result="shape"/>
</filter>
<linearGradient id="paint0_linear_1_1490" x1="18" y1="31.2018" x2="18" y2="4.48149" gradientUnits="userSpaceOnUse">
<stop stop-color="#20B038"/>
<stop offset="1" stop-color="#60D66A"/>
</linearGradient>
</defs>
</svg>
