<svg width="320" height="589" viewBox="0 0 320 589" fill="none" xmlns="http://www.w3.org/2000/svg">
<path opacity="0.03" d="M602.162 358.151C631.199 468.792 631.65 565.553 603.515 648.433C575.381 731.313 518.651 830.317 433.325 945.443C348 1060.57 252.914 1067.6 148.067 966.525C43.2205 865.452 -39.5491 747.572 -100.242 612.885C-160.934 478.197 -128.377 372.357 -2.57012 295.362C123.237 218.368 248.218 181.924 372.373 186.03C496.529 190.136 573.125 247.509 602.162 358.151Z" fill="url(#paint0_linear_1_1564)"/>
<path opacity="0.03" d="M463.661 556.079C443.077 631.805 410.244 689.498 365.161 729.158C320.077 768.817 252.474 808.282 162.351 847.553C72.2277 886.823 13.2811 858.473 -14.4889 762.502C-42.259 666.532 -51.1513 568.119 -41.1658 467.265C-31.1803 366.411 24.3877 314.611 125.538 311.864C226.689 309.118 313.476 330.203 385.9 375.118C458.324 420.032 484.244 480.353 463.661 556.079Z" fill="url(#paint1_linear_1_1564)"/>
<path opacity="0.05" d="M353.424 434.404C363.329 483.965 360.991 526.655 346.409 562.475C331.826 598.295 304.209 640.478 263.558 689.024C222.906 737.57 180.784 738.18 137.192 690.855C93.5991 643.529 60.1846 589.369 36.9478 528.373C13.711 467.377 30.8458 421.546 88.3521 390.879C145.858 360.212 201.937 347.409 256.588 352.47C311.24 357.531 343.518 384.843 353.424 434.404Z" fill="url(#paint2_linear_1_1564)"/>
<defs>
<linearGradient id="paint0_linear_1_1564" x1="-310.089" y1="537.869" x2="741.167" y2="606.278" gradientUnits="userSpaceOnUse">
<stop stop-color="#3682EB"/>
<stop offset="1" stop-color="#5145C1"/>
</linearGradient>
<linearGradient id="paint1_linear_1_1564" x1="-140.288" y1="350.869" x2="461.436" y2="751.181" gradientUnits="userSpaceOnUse">
<stop stop-color="#3682EB"/>
<stop offset="1" stop-color="#5145C1"/>
</linearGradient>
<linearGradient id="paint2_linear_1_1564" x1="-53.6387" y1="489.792" x2="408.22" y2="547.526" gradientUnits="userSpaceOnUse">
<stop stop-color="#3682EB"/>
<stop offset="1" stop-color="#5145C1"/>
</linearGradient>
</defs>
</svg>
