<svg width="280" height="530" viewBox="0 0 280 530" fill="none" xmlns="http://www.w3.org/2000/svg">
<mask id="mask0_1_1788" style="mask-type:alpha" maskUnits="userSpaceOnUse" x="0" y="0" width="281" height="530">
<rect x="0.00012207" width="280" height="530" rx="20" fill="url(#paint0_linear_1_1788)"/>
<rect x="0.500122" y="0.5" width="279" height="529" rx="19.5" stroke="black" stroke-opacity="0.06"/>
</mask>
<g mask="url(#mask0_1_1788)">
<path opacity="0.1" d="M-55.2314 638.745C-85.6253 584.356 -82.2455 533.132 -45.0919 485.073C-7.93837 437.014 39.2131 401.569 96.3623 378.737C153.512 355.905 205.149 366.95 251.275 411.874C297.401 456.797 320.679 511.161 321.108 574.967C321.537 638.772 293.122 676.528 235.863 688.233C178.605 699.939 123.373 708.215 70.1676 713.06C16.9623 717.905 -24.8374 693.134 -55.2314 638.745Z" fill="url(#paint1_linear_1_1788)"/>
<path opacity="0.2" d="M7.51185 604.117C-14.6491 564.461 -12.1848 527.112 14.9047 492.071C41.9943 457.03 76.3735 431.186 118.042 414.539C159.711 397.892 197.362 405.946 230.993 438.7C264.625 471.455 281.597 511.093 281.91 557.615C282.222 604.137 261.504 631.666 219.756 640.201C178.007 648.735 137.737 654.769 98.9433 658.302C60.1499 661.835 29.6728 643.773 7.51185 604.117Z" fill="url(#paint2_linear_1_1788)"/>
<path opacity="0.6" d="M65.5814 559.834C50.2818 532.456 51.9831 506.671 70.6854 482.479C89.3876 458.287 113.122 440.445 141.89 428.952C170.658 417.459 196.651 423.019 219.87 445.632C243.088 468.245 254.806 495.611 255.022 527.729C255.237 559.847 240.934 578.853 212.112 584.745C183.289 590.637 155.487 594.803 128.704 597.242C101.922 599.681 80.881 587.212 65.5814 559.834Z" fill="url(#paint3_linear_1_1788)"/>
</g>
<defs>
<linearGradient id="paint0_linear_1_1788" x1="58.0878" y1="-223.925" x2="448.624" y2="-96.4349" gradientUnits="userSpaceOnUse">
<stop stop-color="#F8FFDB"/>
<stop offset="1" stop-color="#FFFFF3"/>
</linearGradient>
<linearGradient id="paint1_linear_1_1788" x1="391.152" y1="626.581" x2="-106.467" y2="510.096" gradientUnits="userSpaceOnUse">
<stop stop-color="#FFEAAA"/>
<stop offset="1" stop-color="#A6FFE5"/>
</linearGradient>
<linearGradient id="paint2_linear_1_1788" x1="332.981" y1="595.249" x2="-29.8456" y2="510.316" gradientUnits="userSpaceOnUse">
<stop stop-color="#FFEAAA"/>
<stop offset="1" stop-color="#A6FFE5"/>
</linearGradient>
<linearGradient id="paint3_linear_1_1788" x1="290.28" y1="553.711" x2="39.7904" y2="495.075" gradientUnits="userSpaceOnUse">
<stop stop-color="#FFEAAA"/>
<stop offset="1" stop-color="#A6FFE5"/>
</linearGradient>
</defs>
</svg>
