<svg width="22" height="17" viewBox="0 0 22 17" fill="none" xmlns="http://www.w3.org/2000/svg">
<path d="M18.624 1.39005C17.2218 0.746654 15.7181 0.272631 14.146 0.00113888C14.1173 -0.00410084 14.0887 0.0089935 14.074 0.0351828C13.8806 0.37913 13.6664 0.827837 13.5164 1.18052C11.8254 0.927364 10.1431 0.927364 8.48686 1.18052C8.33682 0.819997 8.11484 0.37913 7.92059 0.0351828C7.90584 0.0098673 7.87724 -0.00322704 7.84861 0.00113888C6.27731 0.271764 4.77366 0.745786 3.37058 1.39005C3.35844 1.39528 3.34803 1.40402 3.34112 1.41536C0.489003 5.67636 -0.29231 9.83262 0.0909761 13.9374C0.0927104 13.9574 0.103983 13.9766 0.119593 13.9889C2.00134 15.3708 3.82413 16.2097 5.61307 16.7658C5.6417 16.7745 5.67203 16.764 5.69025 16.7405C6.11343 16.1626 6.49065 15.5532 6.81408 14.9125C6.83317 14.8749 6.81495 14.8304 6.77594 14.8156C6.1776 14.5886 5.60786 14.3119 5.05981 13.9976C5.01646 13.9723 5.01299 13.9103 5.05287 13.8806C5.1682 13.7942 5.28356 13.7043 5.39369 13.6135C5.41361 13.5969 5.44137 13.5934 5.4648 13.6039C9.06524 15.2477 12.9631 15.2477 16.5211 13.6039C16.5445 13.5925 16.5723 13.596 16.5931 13.6126C16.7032 13.7034 16.8186 13.7942 16.9348 13.8806C16.9746 13.9103 16.972 13.9723 16.9287 13.9976C16.3806 14.318 15.8109 14.5886 15.2117 14.8147C15.1727 14.8295 15.1553 14.8749 15.1744 14.9125C15.5048 15.5523 15.882 16.1617 16.2974 16.7396C16.3147 16.764 16.3459 16.7745 16.3746 16.7658C18.1722 16.2097 19.995 15.3708 21.8767 13.9889C21.8932 13.9766 21.9036 13.9583 21.9053 13.9382C22.3641 9.1927 21.137 5.07052 18.6526 1.41623C18.6465 1.40402 18.6361 1.39528 18.624 1.39005ZM7.35175 11.438C6.26777 11.438 5.3746 10.4428 5.3746 9.22065C5.3746 7.99847 6.25045 7.0033 7.35175 7.0033C8.46169 7.0033 9.34622 8.00721 9.32887 9.22065C9.32887 10.4428 8.45302 11.438 7.35175 11.438ZM14.6619 11.438C13.578 11.438 12.6848 10.4428 12.6848 9.22065C12.6848 7.99847 13.5606 7.0033 14.6619 7.0033C15.7719 7.0033 16.6564 8.00721 16.6391 9.22065C16.6391 10.4428 15.7719 11.438 14.6619 11.438Z" fill="white"/>
</svg>
